<svg width="70" height="63" viewBox="0 0 70 63" fill="none" xmlns="http://www.w3.org/2000/svg">
<path d="M0 0V30.184H12.936C12.936 35.0187 12.0213 39.1347 10.192 42.532C8.36267 45.7987 4.96533 48.2813 0 49.98V62.916C4.05067 62.3933 7.77467 61.2173 11.172 59.388C14.7 57.428 17.7053 55.0107 20.188 52.136C22.6707 49.2613 24.5653 45.9293 25.872 42.14C27.3093 38.3507 27.9627 34.3 27.832 29.988V0H0ZM41.748 0V30.184H54.684C54.684 35.0187 53.7693 39.1347 51.94 42.532C50.1107 45.7987 46.7133 48.2813 41.748 49.98V62.916C45.7987 62.3933 49.5227 61.2173 52.92 59.388C56.448 57.428 59.4533 55.0107 61.936 52.136C64.4187 49.2613 66.3133 45.9293 67.62 42.14C69.0573 38.3507 69.7107 34.3 69.58 29.988V0H41.748Z" fill="#005BE9" fill-opacity="0.08"/>
</svg>
